<svg width="192" height="192" viewBox="0 0 40 40" fill="black" xmlns="http://www.w3.org/2000/svg">
<path d="M20.6394 40H20.7141L22.8905 38.5135C23.4463 38.134 23.9011 37.6245 24.2155 37.0294C24.5298 36.4342 24.6941 35.7713 24.6942 35.0983V16.3007L27.0384 17.4911C27.9628 17.9605 28.7391 18.6767 29.2815 19.5602C29.8239 20.4437 30.1112 21.4601 30.1116 22.4968V33.5154L34.2104 30.7378V22.6576C34.2103 20.8427 33.5615 19.0875 32.3812 17.7087L30.1116 15.0587L30.2762 14.9023C30.9442 14.2675 31.476 13.5034 31.8394 12.6566C32.2028 11.8098 32.3902 10.8979 32.3901 9.97639V6.56625C32.3901 5.96796 32.2084 5.38377 31.8691 4.89097C31.5298 4.39818 31.0489 4.02001 30.49 3.80649L28.4662 3.03293V10.5463C28.466 10.7999 28.4091 11.0503 28.2996 11.279C28.1901 11.5077 28.0308 11.7091 27.8333 11.8682C27.6359 12.0273 27.4053 12.1402 27.1585 12.1987C26.9118 12.2571 26.655 12.2595 26.4072 12.2058L24.6948 11.8343V1.60455L20.64 0.0229758L20.6394 40ZM19.4791 0H19.3865L14.4248 1.86686C11.9497 2.79745 9.81723 4.46071 8.31194 6.63471C6.80665 8.80871 6.00013 11.3901 6 14.0343V30.7378L10.0937 33.5154V15.5502C10.0936 14.2045 10.4339 12.8806 11.0829 11.7017C11.7319 10.5229 12.6686 9.52734 13.8057 8.80776L15.4862 7.74445V35.0983C15.4861 35.7713 15.6503 36.4342 15.9645 37.0293C16.2788 37.6245 16.7335 38.134 17.2893 38.5135L19.4669 40H19.481L19.4791 0Z" />
</svg>
