<svg width="27" height="26" viewBox="0 0 27 26" fill="none" xmlns="http://www.w3.org/2000/svg">
<path d="M13.5012 0.199997C10.0249 0.199997 9.58862 0.215198 8.22328 0.277334C6.86059 0.339736 5.93045 0.555478 5.11658 0.872024C4.2747 1.19897 3.56056 1.63632 2.84909 2.34808C2.13708 3.05958 1.69974 3.77374 1.37174 4.61538C1.0544 5.42954 0.838398 6.35998 0.777064 7.72217C0.715997 9.08756 0.699997 9.52411 0.699997 13.0005C0.699997 16.4769 0.715464 16.9119 0.777331 18.2773C0.839999 19.64 1.05573 20.5702 1.372 21.3841C1.69921 22.226 2.13655 22.9401 2.84829 23.6516C3.55949 24.3636 4.27363 24.8021 5.11498 25.129C5.92938 25.4456 6.85979 25.6613 8.22221 25.7237C9.58756 25.7858 10.0236 25.801 13.4996 25.801C16.9762 25.801 17.4111 25.7858 18.7765 25.7237C20.1391 25.6613 21.0703 25.4456 21.8848 25.129C22.7264 24.8021 23.4394 24.3636 24.1506 23.6516C24.8626 22.9401 25.3 22.226 25.628 21.3843C25.9427 20.5702 26.1587 19.6397 26.2227 18.2775C26.284 16.9121 26.3 16.4769 26.3 13.0005C26.3 9.52411 26.284 9.08783 26.2227 7.72244C26.1587 6.35971 25.9427 5.42954 25.628 4.61564C25.3 3.77374 24.8626 3.05958 24.1506 2.34808C23.4386 1.63606 22.7266 1.1987 21.884 0.872024C21.0679 0.555478 20.1373 0.339736 18.7746 0.277334C17.4092 0.215198 16.9746 0.199997 13.4972 0.199997H13.5012ZM12.3529 2.50356C12.6937 2.50302 13.074 2.50676 13.5012 2.50676C16.9188 2.50676 17.3239 2.51902 18.6735 2.58036C19.9215 2.63743 20.5989 2.84597 21.0501 3.02118C21.6474 3.25319 22.0733 3.53053 22.521 3.97855C22.969 4.42657 23.2464 4.85325 23.4789 5.45061C23.6541 5.9013 23.8629 6.57866 23.9197 7.82671C23.981 9.1761 23.9944 9.58144 23.9944 12.9976C23.9944 16.4137 23.981 16.8191 23.9197 18.1685C23.8626 19.4165 23.6541 20.0939 23.4789 20.5446C23.2469 21.1419 22.969 21.5673 22.521 22.015C22.073 22.463 21.6477 22.7404 21.0501 22.9724C20.5994 23.1484 19.9215 23.3564 18.6735 23.4135C17.3242 23.4748 16.9188 23.4881 13.5012 23.4881C10.0833 23.4881 9.67822 23.4748 8.32888 23.4135C7.08086 23.3559 6.40352 23.1473 5.95205 22.9721C5.35471 22.7401 4.92804 22.4628 4.48004 22.0148C4.03203 21.5667 3.7547 21.1411 3.52216 20.5435C3.34696 20.0928 3.13816 19.4154 3.08136 18.1674C3.02002 16.818 3.00775 16.4127 3.00775 12.9944C3.00775 9.57611 3.02002 9.1729 3.08136 7.82351C3.13842 6.57546 3.34696 5.8981 3.52216 5.44688C3.75416 4.84952 4.03203 4.42284 4.48004 3.97482C4.92804 3.5268 5.35471 3.24945 5.95205 3.01691C6.40326 2.8409 7.08086 2.6329 8.32888 2.57556C9.50969 2.52223 9.96729 2.50622 12.3529 2.50356ZM20.3338 4.63218C19.4858 4.63218 18.7978 5.31941 18.7978 6.16771C18.7978 7.01574 19.4858 7.70377 20.3338 7.70377C21.1818 7.70377 21.8698 7.01574 21.8698 6.16771C21.8698 5.31967 21.1818 4.63218 20.3338 4.63218ZM13.5009 6.42692C9.87076 6.42692 6.92779 9.37024 6.92779 13.0005C6.92779 16.6308 9.87102 19.5728 13.5012 19.5728C17.1314 19.5728 20.0735 16.6308 20.0735 13.0005C20.0735 9.37024 17.1311 6.42692 13.5009 6.42692ZM13.5012 8.73368C15.8575 8.73368 17.7679 10.6439 17.7679 13.0005C17.7679 15.3569 15.8575 17.2674 13.5012 17.2674C11.1446 17.2674 9.23449 15.3569 9.23449 13.0005C9.23449 10.6439 11.1446 8.73368 13.5012 8.73368Z" fill="#1E1E1E"/>
</svg>
