<svg width="40" height="40" viewBox="0 0 40 40" fill="none" xmlns="http://www.w3.org/2000/svg">
<path d="M0 19.9978C0 17.3808 3.39846 14.679 3.59049 15.2238C3.78252 15.7687 2.08105 17.5282 2.07212 19.9978C2.08105 22.4673 3.78252 24.2269 3.59049 24.7717C3.39846 25.3165 0 22.6147 0 19.9978ZM2.98761 19.9978C2.98761 20.0022 2.98761 20.0067 2.98761 20.0112C2.98761 21.7618 5.42146 23.1997 5.55097 22.8335C5.68047 22.4673 4.37647 21.659 4.37647 19.9978C4.37647 18.3365 5.68047 17.5282 5.55097 17.162C5.42146 16.7958 2.98761 18.2338 2.98761 19.9844C2.98761 19.9933 2.98761 19.9933 2.98761 19.9978ZM40 19.9978C40 17.3808 36.6015 14.679 36.4095 15.2238C36.2175 15.7687 37.9189 17.5282 37.9279 19.9978C37.9189 22.4673 36.2175 24.2269 36.4095 24.7717C36.5971 25.3165 40 22.6147 40 19.9978ZM37.0079 19.9978C37.0079 19.9933 37.0079 19.9888 37.0079 19.9844C37.0079 18.2338 34.5741 16.7958 34.4446 17.162C34.3151 17.5282 35.6191 18.3365 35.6191 19.9978C35.6191 21.659 34.3151 22.4673 34.4446 22.8335C34.5741 23.1997 37.0079 21.7618 37.0079 20.0112C37.0079 20.0067 37.0079 20.0022 37.0079 19.9978ZM19.9978 0C17.3808 0 14.679 3.39846 15.2238 3.59049C15.7687 3.78252 17.5282 2.08105 19.9978 2.07212C22.4673 2.08105 24.2269 3.78252 24.7717 3.59049C25.3165 3.39846 22.6147 0 19.9978 0ZM19.9978 2.98761C19.9933 2.98761 19.9888 2.98761 19.9844 2.98761C18.2338 2.98761 16.7958 5.42146 17.162 5.55097C17.5282 5.68047 18.341 4.37647 19.9978 4.37647C21.6546 4.37647 22.4673 5.68047 22.8335 5.55097C23.1997 5.42146 21.7618 2.98761 20.0112 2.98761C20.0067 2.98761 20.0022 2.98761 19.9978 2.98761ZM19.9978 40C22.6147 40 25.3165 36.6015 24.7717 36.4095C24.2269 36.2175 22.4673 37.9189 19.9978 37.9279C17.5282 37.9189 15.7687 36.2175 15.2238 36.4095C14.6835 36.5971 17.3808 40 19.9978 40ZM19.9978 37.0079C20.0022 37.0079 20.0067 37.0079 20.0112 37.0079C21.7618 37.0079 23.1997 34.5741 22.8335 34.4446C22.4673 34.3151 21.659 35.6191 19.9978 35.6191C18.3365 35.6191 17.5282 34.3151 17.162 34.4446C16.7958 34.5741 18.2338 37.0079 19.9844 37.0079C19.9933 37.0079 19.9933 37.0079 19.9978 37.0079ZM5.8591 5.8591C4.01027 7.70794 4.50151 12.0219 5.024 11.7718C5.53757 11.5217 5.58223 9.07447 7.32388 7.32388C9.07447 5.58223 11.5262 5.54203 11.7718 5.024C12.0219 4.50151 7.70794 4.00581 5.8591 5.8591ZM7.97142 7.97142C7.96695 7.97589 7.96695 7.97588 7.96249 7.98035C6.72547 9.21737 7.43106 11.9549 7.77939 11.7897C8.12772 11.6244 7.77939 10.1284 8.95389 8.95389C10.1284 7.77939 11.6244 8.12772 11.7897 7.77939C11.9594 7.43106 9.22184 6.72547 7.98035 7.96249C7.97588 7.96695 7.97589 7.96695 7.97142 7.97142ZM34.1409 34.1409C35.9897 32.2921 35.4985 27.9781 34.976 28.2282C34.458 28.4783 34.4133 30.9255 32.6761 32.6761C30.9255 34.4178 28.4738 34.458 28.2282 34.976C27.9781 35.4985 32.2921 35.9897 34.1409 34.1409ZM32.0286 32.0286C32.033 32.0241 32.033 32.0241 32.0375 32.0196C33.2745 30.7826 32.5689 28.0451 32.2206 28.2103C31.8723 28.38 32.2206 29.8716 31.0461 31.0461C29.8716 32.2206 28.3756 31.8723 28.2103 32.2206C28.0406 32.5689 30.7782 33.2745 32.0196 32.0375C32.0196 32.033 32.0241 32.0286 32.0286 32.0286ZM34.1409 5.8591C32.2921 4.01027 27.9781 4.50151 28.2282 5.024C28.4783 5.54203 30.9255 5.58669 32.6761 7.32388C34.4178 9.07447 34.458 11.5262 34.976 11.7718C35.4985 12.0219 35.9897 7.70794 34.1409 5.8591ZM32.0286 7.97142C32.0241 7.96695 32.0241 7.96695 32.0196 7.96249C30.7826 6.72547 28.0451 7.43106 28.2103 7.77939C28.3756 8.12772 29.8716 7.77939 31.0461 8.95389C32.2206 10.1284 31.8723 11.6244 32.2206 11.7897C32.5689 11.9594 33.2745 9.22184 32.0375 7.98035C32.033 7.97588 32.0286 7.97589 32.0286 7.97142ZM5.8591 34.1409C7.70794 35.9897 12.0219 35.4985 11.7718 34.976C11.5217 34.458 9.07447 34.4133 7.32388 32.6761C5.58223 30.9255 5.54203 28.4738 5.024 28.2282C4.50151 27.9781 4.00581 32.2921 5.8591 34.1409ZM7.97142 32.0286C7.97589 32.033 7.97588 32.033 7.98035 32.0375C9.21737 33.2745 11.9549 32.5689 11.7897 32.2206C11.6244 31.8723 10.1284 32.2206 8.95389 31.0461C7.77939 29.8716 8.12772 28.3756 7.77939 28.2103C7.43106 28.0451 6.72547 30.7782 7.96249 32.0196C7.96695 32.0196 7.96695 32.0241 7.97142 32.0286ZM34.0382 24.5529C34.6813 25.3746 34.1811 26.5803 33.145 26.7054L28.4515 27.2859C27.8397 27.3618 27.3618 27.8397 27.2859 28.4515L26.7054 33.145C26.5803 34.1766 25.3701 34.6768 24.5529 34.0382L20.8239 31.1265C20.3372 30.7469 19.6584 30.7469 19.1761 31.1265L15.4471 34.0382C14.6254 34.6813 13.4197 34.1811 13.2946 33.145L12.7185 28.447C12.6426 27.8352 12.1648 27.3574 11.553 27.2815L6.85051 26.7054C5.81891 26.5803 5.31875 25.3701 5.95735 24.5529L8.86904 20.8239C9.24863 20.3372 9.24863 19.6584 8.86904 19.1761L5.95735 15.4471C5.31428 14.6254 5.81445 13.4197 6.85051 13.2946L11.5485 12.7185C12.1603 12.6426 12.6382 12.1648 12.7141 11.553L13.2902 6.85497C13.4152 5.82338 14.6254 5.32321 15.4427 5.96182L19.1716 8.87351C19.6584 9.2531 20.3372 9.2531 20.8195 8.87351L24.5484 5.96182C25.3701 5.31875 26.5759 5.81891 26.7009 6.85497L27.2859 11.5485C27.3618 12.1603 27.8397 12.6382 28.4515 12.7141L33.1495 13.2902C34.1811 13.4152 34.6813 14.6254 34.0426 15.4427L31.1265 19.1761C30.7469 19.6628 30.7469 20.3416 31.1265 20.8239L34.0382 24.5529ZM32.7252 25.1468C32.7074 24.8074 32.0375 24.1688 31.9929 24.1241C31.7115 23.8473 29.2598 21.659 28.715 21.2125C28.4783 21.016 28.4827 21.1142 27.6253 20.9936C26.9019 20.8909 26.9465 20.0022 26.9465 20.0022C26.9465 20.0022 26.9019 19.118 27.6253 19.0108C28.4827 18.8858 28.4738 18.984 28.715 18.792C29.2598 18.341 31.7115 16.1572 31.9929 15.8803C32.0375 15.8357 32.7074 15.1971 32.7252 14.8577C32.7252 14.8577 32.7252 14.8398 32.7252 14.8309C32.7252 14.7683 32.6984 14.7103 32.6538 14.6612C32.6493 14.6567 32.6359 14.6433 32.6359 14.6433C32.3814 14.4155 31.4614 14.4379 31.3944 14.4379C30.997 14.4423 27.7191 14.6254 27.018 14.6969C26.7098 14.7281 26.7858 14.7907 26.0936 15.3087C25.5085 15.7463 24.9146 15.0899 24.9146 15.0899C24.9146 15.0899 24.2581 14.4959 24.6958 13.9109C25.2138 13.2142 25.2808 13.2946 25.3076 12.9865C25.3746 12.2809 25.5621 9.00301 25.5666 8.61003C25.5666 8.54304 25.5889 7.62309 25.3612 7.36854C25.3612 7.36854 25.3478 7.35514 25.3433 7.35068C25.2987 7.30602 25.2361 7.28369 25.1736 7.27922C25.1647 7.27922 25.1468 7.27922 25.1468 7.27922C24.8074 7.29709 24.1688 7.96695 24.1241 8.01161C23.8473 8.29296 21.659 10.7447 21.2125 11.2895C21.016 11.5262 21.1142 11.5217 20.9936 12.3791C20.8865 13.1026 20.0022 13.0579 20.0022 13.0579C20.0022 13.0579 19.118 13.1026 19.0108 12.3791C18.8858 11.5217 18.984 11.5306 18.792 11.2895C18.341 10.7447 16.1572 8.29296 15.8803 8.01161C15.8357 7.96695 15.1971 7.29709 14.8577 7.27922C14.8577 7.27922 14.8398 7.27922 14.8309 7.27922C14.7683 7.27922 14.7103 7.30602 14.6612 7.35068C14.6567 7.35514 14.6433 7.36854 14.6433 7.36854C14.4155 7.62309 14.4379 8.54304 14.4379 8.61003C14.4423 9.00748 14.6254 12.2854 14.6969 12.9865C14.7281 13.2946 14.7907 13.2187 15.3087 13.9109C15.7463 14.4959 15.0899 15.0899 15.0899 15.0899C15.0899 15.0899 14.4959 15.7463 13.9109 15.3087C13.2142 14.7907 13.2946 14.7237 12.9865 14.6969C12.2809 14.6299 9.00301 14.4423 8.61003 14.4379C8.54304 14.4379 7.62309 14.4155 7.36854 14.6433C7.36854 14.6433 7.35514 14.6567 7.35068 14.6612C7.30602 14.7058 7.28369 14.7683 7.27922 14.8309C7.27922 14.8398 7.27922 14.8577 7.27922 14.8577C7.29709 15.1971 7.96695 15.8357 8.01161 15.8803C8.29296 16.1572 10.7447 18.3454 11.2895 18.792C11.5262 18.9885 11.5217 18.8903 12.3791 19.0108C13.1026 19.118 13.0579 20.0022 13.0579 20.0022C13.0579 20.0022 13.1026 20.8865 12.3791 20.9936C11.5217 21.1187 11.5306 21.0204 11.2895 21.2125C10.7447 21.6635 8.29296 23.8473 8.01161 24.1241C7.96695 24.1688 7.29709 24.8074 7.27922 25.1468C7.27922 25.1468 7.27922 25.1647 7.27922 25.1736C7.27922 25.2361 7.30602 25.2942 7.35068 25.3433C7.35514 25.3478 7.36854 25.3612 7.36854 25.3612C7.62309 25.5889 8.54304 25.5666 8.61003 25.5666C9.00748 25.5621 12.2854 25.379 12.9865 25.3076C13.2946 25.2763 13.2187 25.2138 13.9109 24.6958C14.4959 24.2581 15.0899 24.9146 15.0899 24.9146C15.0899 24.9146 15.7463 25.5085 15.3087 26.0936C14.7907 26.7902 14.7237 26.7098 14.6969 27.018C14.6299 27.7236 14.4423 31.0015 14.4379 31.3944C14.4379 31.4614 14.4155 32.3814 14.6433 32.6359C14.6433 32.6359 14.6567 32.6493 14.6612 32.6538C14.7058 32.6984 14.7683 32.7208 14.8309 32.7252C14.8398 32.7252 14.8577 32.7252 14.8577 32.7252C15.1971 32.7074 15.8357 32.0375 15.8803 31.9929C16.1572 31.7115 18.3454 29.2598 18.792 28.715C18.9885 28.4783 18.8903 28.4827 19.0108 27.6253C19.118 26.9019 20.0022 26.9465 20.0022 26.9465C20.0022 26.9465 20.8865 26.9019 20.9936 27.6253C21.1187 28.4827 21.0204 28.4738 21.2125 28.715C21.6635 29.2598 23.8473 31.7115 24.1241 31.9929C24.1688 32.0375 24.8074 32.7074 25.1468 32.7252C25.1468 32.7252 25.1647 32.7252 25.1736 32.7252C25.2361 32.7252 25.2942 32.6984 25.3433 32.6538C25.3478 32.6493 25.3612 32.6359 25.3612 32.6359C25.5889 32.3814 25.5666 31.4614 25.5666 31.3944C25.5621 30.997 25.379 27.7191 25.3076 27.018C25.2763 26.7098 25.2138 26.7858 24.6958 26.0936C24.2581 25.5085 24.9146 24.9146 24.9146 24.9146C24.9146 24.9146 25.5085 24.2581 26.0936 24.6958C26.7902 25.2138 26.7098 25.2808 27.018 25.3076C27.7236 25.3746 31.0015 25.5621 31.3944 25.5666C31.4614 25.5666 32.3814 25.5889 32.6359 25.3612C32.6359 25.3612 32.6493 25.3478 32.6538 25.3433C32.6984 25.2987 32.7208 25.2361 32.7252 25.1736C32.7252 25.1647 32.7252 25.1468 32.7252 25.1468Z" fill="white"/>
</svg>
